<?xml version="1.0" encoding="utf-8"?>
<!-- Generator: Adobe Illustrator 16.0.0, SVG Export Plug-In . SVG Version: 6.00 Build 0)  -->
<!DOCTYPE svg PUBLIC "-//W3C//DTD SVG 1.1//EN" "http://www.w3.org/Graphics/SVG/1.1/DTD/svg11.dtd">
<svg version="1.1" id="Layer_1" xmlns="http://www.w3.org/2000/svg" xmlns:xlink="http://www.w3.org/1999/xlink" x="0px" y="0px"
	 width="792px" height="612px" viewBox="0 0 792 612" enable-background="new 0 0 792 612" xml:space="preserve">
<g>
	<g>
		<path fill="none" stroke="#231F20" stroke-width="4" stroke-miterlimit="10" d="M352.569,248.5l13-31.5c0,0,4.5-10.5,4.5-18
			s0-16,6-18s9-4.5,12,0s1,27.5,0,41.5s-1.5,17.5-1.5,17.5l15.5-1.5c0,0,10-16,18.5-22s22.5-10,28-12s17-9.5,23.5-2s-3,37-9.5,46
			s-12,16-12,16s35.5,26.5,40,41.5s3,64-4,76.5s9,23.5,1,30s-28,6.5-31,3s-4.5-7.5-9-7s-9.5,9.5-14,11.5s-34.5,4.5-40,2.5
			s-0.5-2.5-3-6.5s-23-1-25.5,0.5s-14,9-23.5,10.5s-14.5-0.5-18-3.5s0-9.5,0-9.5s-17.5,3.5-22,0.5s-3.5-16.5,4-26.5s13-27,13-27
			s-6,1-9.5-2s-11.5-18.5-6-31s11.5-35.5,14.5-43s17.5-24,23.5-28S352.569,248.5,352.569,248.5z"/>
		<path fill="#BD97A0" stroke="#231F20" stroke-width="4" stroke-miterlimit="10" d="M409.069,275.5c0,0,8.5-22,9-29s0-20,11-27
			s32-16,36-12s-0.5,18.514-12,33.507s-20.5,23.493-28.5,26.493S409.069,275.5,409.069,275.5z"/>
		<path fill="#231F20" d="M360.069,317c0,0,0.5-7.5,5.5-11s7-3.5,9,0s0.5,9-4,11S360.069,317,360.069,317z"/>
		<polyline fill="none" stroke="#231F20" stroke-width="4" stroke-miterlimit="10" points="307.069,342 316.069,351 328.069,346.5 
					"/>
		<path fill="none" stroke="#231F20" stroke-width="4" stroke-miterlimit="10" d="M328.069,362.5c0,0,55.5,14.5,77-4
			s16-71.5,16-71.5s8.932-6.5,16.716-11.5"/>
	</g>
	<g>
		<path d="M306.628,459.357h-7.755v-17.717h6.893c1.2,0,2.234,0.144,3.105,0.432c0.87,0.287,1.524,0.677,1.964,1.165
			c0.794,0.912,1.191,1.944,1.191,3.093c0,1.386-0.448,2.416-1.343,3.092c-0.304,0.237-0.516,0.385-0.634,0.443
			c-0.119,0.059-0.33,0.157-0.634,0.292c1.099,0.237,1.973,0.731,2.624,1.482c0.65,0.752,0.975,1.686,0.975,2.8
			c0,1.233-0.422,2.323-1.267,3.271C310.768,458.809,309.061,459.357,306.628,459.357z M302.827,448.812h1.875
			c1.099,0,1.914-0.116,2.446-0.354c0.532-0.236,0.798-0.747,0.798-1.533c0-0.784-0.245-1.305-0.735-1.558
			c-0.49-0.255-1.317-0.381-2.483-0.381h-1.9V448.812z M302.827,456.012h2.711c1.132,0,1.981-0.139,2.547-0.42
			c0.565-0.278,0.849-0.826,0.849-1.646c0-0.818-0.3-1.359-0.899-1.622c-0.6-0.262-1.559-0.393-2.876-0.393h-2.332V456.012z"/>
		<path d="M321.023,454.782c0.659,0.82,1.546,1.229,2.662,1.229c1.115,0,1.998-0.409,2.649-1.229
			c0.65-0.818,0.975-1.939,0.975-3.358v-9.783h3.954v9.91c0,2.568-0.71,4.541-2.129,5.917c-1.419,1.379-3.235,2.066-5.449,2.066
			c-2.214,0-4.034-0.692-5.462-2.078c-1.428-1.385-2.142-3.354-2.142-5.905v-9.91h3.954v9.783
			C320.035,452.843,320.365,453.964,321.023,454.782z"/>
		<path d="M347.762,441.641h3.954v17.717h-3.954l-8.439-11.102v11.102h-3.954v-17.717h3.7l8.693,11.406V441.641z"/>
		<path d="M368.469,441.641h3.954v17.717h-3.954l-8.439-11.102v11.102h-3.954v-17.717h3.7l8.693,11.406V441.641z"/>
		<path d="M384.41,459.357h-3.954v-6.995l-6.133-10.722h4.283l3.827,6.59l3.827-6.59h4.284l-6.134,10.722V459.357z"/>
		<path d="M413.506,447.521c0,2.84-1.125,4.672-3.371,5.5l4.485,6.337h-4.865l-3.929-5.652h-2.738v5.652h-3.952v-17.717h6.715
			c2.755,0,4.719,0.465,5.893,1.395C412.918,443.964,413.506,445.46,413.506,447.521z M408.741,449.625
			c0.489-0.44,0.735-1.137,0.735-2.092c0-0.954-0.254-1.608-0.762-1.964c-0.506-0.354-1.393-0.531-2.66-0.531h-2.967v5.245h2.89
			C407.33,450.283,408.25,450.064,408.741,449.625z"/>
		<path d="M430.182,459.357l-1.647-3.828h-7.427l-1.646,3.828h-4.208l7.655-17.717h3.826l7.654,17.717H430.182z M424.834,446.913
			l-2.23,5.145h4.436L424.834,446.913z"/>
		<path d="M444.197,459.357h-7.755v-17.717h6.893c1.2,0,2.234,0.144,3.104,0.432c0.87,0.287,1.525,0.677,1.964,1.165
			c0.794,0.912,1.191,1.944,1.191,3.093c0,1.386-0.448,2.416-1.343,3.092c-0.305,0.237-0.515,0.385-0.633,0.443
			c-0.119,0.059-0.33,0.157-0.635,0.292c1.099,0.237,1.973,0.731,2.623,1.482c0.65,0.752,0.977,1.686,0.977,2.8
			c0,1.233-0.423,2.323-1.268,3.271C448.337,458.809,446.63,459.357,444.197,459.357z M440.395,448.812h1.876
			c1.099,0,1.914-0.116,2.446-0.354c0.532-0.236,0.798-0.747,0.798-1.533c0-0.784-0.245-1.305-0.734-1.558
			c-0.49-0.255-1.318-0.381-2.483-0.381h-1.902V448.812z M440.395,456.012h2.712c1.132,0,1.982-0.139,2.548-0.42
			c0.565-0.278,0.849-0.826,0.849-1.646c0-0.818-0.3-1.359-0.899-1.622c-0.6-0.262-1.559-0.393-2.877-0.393h-2.332V456.012z"/>
		<path d="M461.659,459.357h-7.755v-17.717h6.893c1.199,0,2.235,0.144,3.105,0.432c0.869,0.287,1.524,0.677,1.964,1.165
			c0.794,0.912,1.191,1.944,1.191,3.093c0,1.386-0.448,2.416-1.343,3.092c-0.305,0.237-0.517,0.385-0.634,0.443
			c-0.118,0.059-0.329,0.157-0.634,0.292c1.099,0.237,1.973,0.731,2.623,1.482c0.65,0.752,0.977,1.686,0.977,2.8
			c0,1.233-0.424,2.323-1.268,3.271C465.8,458.809,464.092,459.357,461.659,459.357z M457.857,448.812h1.876
			c1.099,0,1.914-0.116,2.445-0.354c0.533-0.236,0.799-0.747,0.799-1.533c0-0.784-0.245-1.305-0.735-1.558
			c-0.49-0.255-1.317-0.381-2.483-0.381h-1.901V448.812z M457.857,456.012h2.712c1.132,0,1.981-0.139,2.548-0.42
			c0.565-0.278,0.848-0.826,0.848-1.646c0-0.818-0.299-1.359-0.898-1.622c-0.6-0.262-1.56-0.393-2.877-0.393h-2.332V456.012z"/>
		<path d="M471.367,441.641h3.953v17.717h-3.953V441.641z"/>
		<path d="M487.182,445.062v14.295h-3.954v-14.295h-5.018v-3.422h13.99v3.422H487.182z"/>
	</g>
</g>
</svg>
